<?xml version="1.0" encoding="UTF-8"?>
<svg xmlns="http://www.w3.org/2000/svg" width="1616.00" height="243.00" viewBox="6.00 6.00 1616.00 243.00" role="img" aria-labelledby="title desc">
  <title id="title">Cropped Crystal Web Solution logo</title>
  <desc id="desc">White CWS symbol with the words Crystal Web Solution and the tagline Empower your vision through technology, on a transparent background.</desc>
  <path fill="#FFFFFF" fill-rule="evenodd" clip-rule="evenodd" d="M 1580 195 L 1576 195 L 1573 204 L 1573 207 L 1569 216 L 1562 195 L 1558 195 L 1567 221 L 1567 225 L 1565 230 L 1562 233 L 1559 233 L 1559 236 L 1562 237 L 1565 236 L 1568 233 L 1571 226 L 1571 223 L 1576 210 L 1577 203 L 1580 197 Z M 1247 195 L 1247 218 L 1248 220 L 1251 223 L 1259 223 L 1262 220 L 1263 223 L 1267 223 L 1267 195 L 1263 195 L 1263 214 L 1262 216 L 1257 220 L 1253 219 L 1251 216 L 1251 209 L 1250 208 L 1251 195 Z M 1078 195 L 1078 223 L 1082 223 L 1082 195 Z M 1045 195 L 1044 196 L 1044 200 L 1045 201 L 1045 223 L 1048 223 L 1048 202 L 1049 201 L 1049 195 Z M 1017 195 L 1022 210 L 1022 213 L 1025 219 L 1025 222 L 1026 223 L 1031 223 L 1032 217 L 1036 207 L 1036 204 L 1039 195 L 1035 195 L 1033 201 L 1033 204 L 1032 205 L 1032 208 L 1030 212 L 1030 215 L 1028 217 L 1024 207 L 1024 204 L 1021 195 Z M 962 195 L 962 208 L 961 209 L 961 214 L 962 215 L 962 219 L 965 223 L 968 224 L 971 224 L 977 221 L 978 223 L 981 223 L 982 222 L 982 217 L 981 216 L 982 195 L 978 195 L 978 213 L 977 216 L 972 220 L 969 220 L 966 217 L 965 195 Z M 930 195 L 926 195 L 924 201 L 924 204 L 921 211 L 921 214 L 919 216 L 912 195 L 908 195 L 917 221 L 916 228 L 912 233 L 909 233 L 909 237 L 913 237 L 918 233 L 921 226 L 922 219 Z M 816 195 L 816 198 L 817 199 L 822 222 L 823 223 L 827 223 L 828 217 L 831 209 L 831 205 L 833 203 L 834 204 L 834 208 L 835 209 L 838 223 L 843 223 L 843 220 L 845 216 L 845 213 L 848 205 L 848 201 L 850 195 L 846 195 L 845 201 L 843 205 L 842 214 L 840 216 L 839 215 L 839 211 L 838 210 L 838 206 L 836 202 L 835 195 L 831 195 L 830 197 L 827 212 L 825 216 L 824 215 L 824 212 L 821 203 L 820 195 Z M 1539 194 L 1533 198 L 1531 203 L 1531 213 L 1532 214 L 1532 217 L 1537 223 L 1540 224 L 1545 223 L 1548 220 L 1549 221 L 1549 228 L 1545 233 L 1538 233 L 1535 230 L 1534 230 L 1532 233 L 1535 236 L 1538 237 L 1545 237 L 1550 234 L 1553 226 L 1553 195 L 1549 195 L 1548 197 L 1544 194 Z M 1540 198 L 1544 198 L 1546 199 L 1549 204 L 1549 213 L 1547 217 L 1543 220 L 1539 219 L 1535 214 L 1535 204 Z M 1512 194 L 1507 197 L 1503 205 L 1503 214 L 1508 222 L 1512 224 L 1517 224 L 1521 222 L 1525 217 L 1526 214 L 1526 203 L 1525 200 L 1520 195 L 1518 194 Z M 1512 198 L 1517 198 L 1521 202 L 1522 205 L 1522 212 L 1520 217 L 1516 220 L 1511 219 L 1509 217 L 1507 212 L 1508 202 Z M 1479 194 L 1473 194 L 1470 195 L 1466 199 L 1464 205 L 1464 214 L 1466 219 L 1469 222 L 1474 224 L 1480 223 L 1483 221 L 1486 216 L 1486 213 L 1487 212 L 1486 201 L 1485 199 Z M 1473 198 L 1478 198 L 1482 202 L 1482 205 L 1483 206 L 1482 215 L 1476 220 L 1472 219 L 1469 216 L 1468 213 L 1468 204 Z M 1438 195 L 1438 223 L 1441 223 L 1442 222 L 1441 221 L 1442 203 L 1446 198 L 1451 198 L 1454 202 L 1454 223 L 1458 223 L 1458 200 L 1457 198 L 1453 194 L 1447 194 L 1443 197 L 1442 197 L 1441 195 Z M 1393 194 L 1388 197 L 1384 205 L 1384 212 L 1385 213 L 1385 216 L 1389 222 L 1394 224 L 1397 224 L 1398 223 L 1401 223 L 1405 219 L 1403 217 L 1400 218 L 1398 220 L 1393 219 L 1389 215 L 1389 212 L 1388 211 L 1389 203 L 1390 201 L 1395 197 L 1400 199 L 1402 201 L 1404 198 L 1399 194 Z M 1367 194 L 1363 196 L 1359 202 L 1358 213 L 1361 220 L 1363 222 L 1368 224 L 1371 224 L 1372 223 L 1375 223 L 1379 219 L 1376 217 L 1372 220 L 1368 220 L 1364 217 L 1362 211 L 1364 209 L 1365 210 L 1379 210 L 1380 209 L 1380 203 L 1378 198 L 1376 196 L 1372 194 Z M 1362 204 L 1367 198 L 1372 198 L 1376 203 L 1375 206 L 1363 206 Z M 1281 194 L 1275 199 L 1273 203 L 1273 214 L 1275 219 L 1279 223 L 1284 224 L 1290 221 L 1291 222 L 1291 228 L 1287 233 L 1280 233 L 1277 230 L 1275 230 L 1274 234 L 1280 237 L 1287 237 L 1290 236 L 1293 233 L 1295 229 L 1295 195 L 1291 195 L 1290 197 L 1286 194 Z M 1282 198 L 1286 198 L 1288 199 L 1291 203 L 1291 214 L 1290 216 L 1285 220 L 1281 219 L 1277 214 L 1277 204 Z M 1226 194 L 1220 199 L 1220 201 L 1218 204 L 1218 214 L 1220 219 L 1224 223 L 1232 224 L 1236 222 L 1240 217 L 1241 214 L 1241 204 L 1236 196 L 1232 194 Z M 1227 198 L 1232 198 L 1236 202 L 1237 205 L 1237 212 L 1235 217 L 1231 220 L 1226 219 L 1222 214 L 1222 204 Z M 1215 194 L 1212 194 L 1208 197 L 1207 195 L 1203 195 L 1203 223 L 1207 223 L 1207 203 L 1211 199 L 1216 198 L 1216 195 Z M 1134 195 L 1132 194 L 1127 194 L 1122 197 L 1121 195 L 1117 195 L 1117 223 L 1121 223 L 1121 203 L 1122 201 L 1126 198 L 1130 198 L 1133 201 L 1133 223 L 1137 223 L 1137 199 Z M 1097 194 L 1093 196 L 1089 201 L 1089 204 L 1088 205 L 1088 214 L 1089 217 L 1093 222 L 1098 224 L 1102 224 L 1106 222 L 1110 216 L 1111 213 L 1111 204 L 1108 198 L 1105 195 L 1103 194 Z M 1097 198 L 1101 198 L 1103 199 L 1106 202 L 1107 205 L 1107 213 L 1105 217 L 1101 220 L 1096 219 L 1092 214 L 1092 204 Z M 1061 194 L 1056 198 L 1055 200 L 1055 204 L 1059 209 L 1066 212 L 1068 214 L 1068 217 L 1065 220 L 1061 220 L 1056 217 L 1054 220 L 1058 223 L 1064 224 L 1065 223 L 1068 223 L 1071 220 L 1072 218 L 1072 212 L 1070 209 L 1062 206 L 1059 203 L 1059 200 L 1061 198 L 1066 198 L 1069 200 L 1071 197 L 1066 194 Z M 1002 194 L 999 194 L 995 197 L 994 197 L 993 195 L 989 195 L 989 223 L 993 223 L 993 205 L 994 202 L 997 199 L 1002 198 Z M 942 194 L 939 195 L 934 200 L 934 203 L 933 204 L 933 214 L 935 219 L 939 223 L 941 224 L 947 224 L 951 222 L 955 217 L 956 214 L 956 205 L 953 198 L 951 196 L 947 194 Z M 942 198 L 947 198 L 951 202 L 952 205 L 952 212 L 950 217 L 946 220 L 941 219 L 937 214 L 937 204 Z M 893 194 L 890 194 L 886 197 L 885 197 L 884 195 L 881 195 L 880 196 L 881 197 L 881 223 L 884 223 L 884 205 L 886 201 L 889 198 L 893 198 Z M 862 194 L 859 195 L 854 201 L 853 204 L 853 214 L 855 219 L 858 222 L 863 224 L 867 224 L 870 223 L 874 219 L 871 217 L 868 220 L 862 220 L 858 216 L 857 214 L 857 210 L 858 209 L 869 209 L 870 210 L 874 210 L 875 209 L 875 205 L 874 204 L 874 200 L 871 196 L 867 194 Z M 857 204 L 859 200 L 862 198 L 867 198 L 871 203 L 870 206 L 858 206 Z M 799 194 L 795 196 L 792 199 L 790 203 L 790 215 L 792 219 L 796 223 L 802 224 L 803 223 L 806 223 L 811 218 L 812 215 L 812 203 L 808 196 L 804 194 Z M 799 198 L 803 198 L 805 199 L 809 206 L 809 213 L 807 217 L 803 220 L 799 220 L 794 214 L 794 204 L 796 200 Z M 777 194 L 772 194 L 768 197 L 767 195 L 763 195 L 763 236 L 767 236 L 767 222 L 768 221 L 770 223 L 776 224 L 781 222 L 784 218 L 785 215 L 785 203 L 782 197 Z M 772 198 L 776 198 L 778 199 L 781 203 L 781 207 L 782 208 L 781 215 L 779 218 L 776 220 L 772 220 L 768 217 L 766 212 L 767 204 Z M 721 195 L 721 223 L 725 223 L 725 203 L 729 198 L 733 198 L 736 201 L 736 219 L 737 220 L 736 222 L 737 223 L 740 223 L 740 203 L 741 201 L 744 198 L 748 198 L 750 199 L 752 203 L 752 223 L 756 223 L 756 202 L 754 197 L 750 194 L 745 194 L 740 198 L 735 194 L 730 194 L 726 197 L 725 195 Z M 1345 186 L 1344 187 L 1345 188 L 1345 192 L 1343 195 L 1340 195 L 1340 198 L 1343 198 L 1344 199 L 1344 218 L 1345 221 L 1347 223 L 1352 224 L 1355 222 L 1355 220 L 1354 219 L 1351 220 L 1348 217 L 1348 199 L 1349 198 L 1354 198 L 1354 195 L 1349 195 L 1348 194 L 1348 186 Z M 1159 186 L 1159 193 L 1158 194 L 1155 194 L 1155 198 L 1158 198 L 1159 199 L 1159 219 L 1162 223 L 1167 224 L 1170 223 L 1170 220 L 1169 219 L 1166 220 L 1163 217 L 1163 199 L 1164 198 L 1169 198 L 1169 194 L 1168 195 L 1164 195 L 1163 194 L 1163 186 Z M 692 182 L 693 223 L 714 223 L 714 219 L 697 219 L 696 218 L 696 205 L 697 204 L 711 204 L 712 203 L 712 200 L 711 199 L 697 199 L 696 198 L 697 197 L 697 190 L 696 189 L 697 188 L 696 187 L 698 185 L 714 185 L 714 182 Z M 1493 181 L 1493 223 L 1497 223 L 1497 181 Z M 1303 181 L 1302 182 L 1303 183 L 1302 184 L 1302 204 L 1303 205 L 1302 223 L 1306 223 L 1306 204 L 1308 200 L 1311 198 L 1315 198 L 1319 203 L 1319 223 L 1322 223 L 1323 222 L 1322 221 L 1323 218 L 1322 199 L 1321 197 L 1317 194 L 1311 194 L 1307 197 L 1306 196 L 1306 181 Z M 1176 181 L 1175 182 L 1175 186 L 1176 187 L 1176 194 L 1175 195 L 1175 217 L 1176 218 L 1176 221 L 1175 222 L 1176 223 L 1179 223 L 1179 205 L 1181 200 L 1184 198 L 1188 198 L 1192 203 L 1192 223 L 1196 223 L 1196 201 L 1195 198 L 1190 194 L 1185 194 L 1180 197 L 1179 196 L 1179 181 Z M 1079 181 L 1077 184 L 1077 186 L 1078 188 L 1081 188 L 1083 186 L 1083 184 L 1082 182 Z M 1046 181 L 1044 183 L 1044 187 L 1047 188 L 1049 186 L 1049 183 Z M 1411 180 L 1411 186 L 1410 187 L 1410 223 L 1414 223 L 1414 204 L 1415 201 L 1419 198 L 1423 198 L 1427 203 L 1427 223 L 1430 223 L 1431 222 L 1430 221 L 1430 208 L 1431 207 L 1430 199 L 1429 197 L 1425 194 L 1420 194 L 1415 197 L 1414 196 L 1414 180 Z M 1573 76 L 1573 87 L 1574 88 L 1574 91 L 1573 92 L 1573 111 L 1574 112 L 1574 116 L 1573 117 L 1573 137 L 1574 140 L 1573 143 L 1584 143 L 1584 101 L 1585 100 L 1587 102 L 1608 143 L 1620 143 L 1620 76 L 1609 76 L 1609 118 L 1608 119 L 1599 101 L 1597 99 L 1594 93 L 1594 91 L 1590 85 L 1586 76 Z M 1489 76 L 1489 143 L 1500 143 L 1500 92 L 1501 91 L 1500 89 L 1500 78 L 1501 77 L 1500 76 Z M 1440 76 L 1440 88 L 1454 88 L 1455 89 L 1455 143 L 1466 143 L 1466 89 L 1467 88 L 1481 88 L 1482 87 L 1482 76 Z M 1389 76 L 1389 123 L 1390 124 L 1390 128 L 1392 131 L 1392 133 L 1396 139 L 1402 143 L 1410 144 L 1411 145 L 1421 143 L 1429 136 L 1433 126 L 1433 76 L 1422 76 L 1422 122 L 1420 127 L 1416 131 L 1413 132 L 1406 130 L 1402 126 L 1401 123 L 1401 119 L 1400 118 L 1400 78 L 1401 77 L 1400 76 Z M 1350 76 L 1350 143 L 1384 143 L 1384 131 L 1362 131 L 1361 130 L 1361 91 L 1362 90 L 1361 88 L 1361 76 Z M 1169 76 L 1169 143 L 1196 143 L 1202 141 L 1208 135 L 1210 130 L 1210 119 L 1208 114 L 1201 108 L 1201 107 L 1205 104 L 1208 97 L 1208 89 L 1205 82 L 1202 79 L 1195 76 Z M 1180 116 L 1182 114 L 1183 115 L 1185 114 L 1195 115 L 1199 119 L 1199 126 L 1198 128 L 1194 131 L 1181 131 L 1180 130 Z M 1180 88 L 1181 87 L 1189 87 L 1190 88 L 1193 88 L 1197 92 L 1197 98 L 1196 100 L 1192 103 L 1181 103 L 1180 102 Z M 1123 76 L 1123 143 L 1160 143 L 1160 131 L 1135 131 L 1133 129 L 1133 123 L 1134 122 L 1133 121 L 1134 120 L 1133 119 L 1133 116 L 1134 115 L 1156 115 L 1156 103 L 1135 103 L 1133 101 L 1134 100 L 1134 92 L 1133 89 L 1134 88 L 1158 88 L 1159 87 L 1158 86 L 1159 84 L 1159 76 Z M 1039 76 L 1041 82 L 1041 85 L 1042 86 L 1042 90 L 1045 98 L 1045 102 L 1046 103 L 1051 126 L 1052 127 L 1052 130 L 1053 131 L 1053 134 L 1054 135 L 1054 138 L 1055 139 L 1055 143 L 1067 143 L 1067 139 L 1068 138 L 1068 135 L 1069 134 L 1069 131 L 1070 130 L 1070 127 L 1071 126 L 1071 123 L 1072 122 L 1072 119 L 1073 118 L 1073 115 L 1076 106 L 1076 102 L 1078 100 L 1081 109 L 1082 118 L 1085 126 L 1085 130 L 1087 135 L 1088 143 L 1100 143 L 1100 140 L 1102 136 L 1103 128 L 1105 123 L 1105 119 L 1106 118 L 1111 95 L 1113 91 L 1116 76 L 1105 76 L 1104 77 L 1103 85 L 1102 86 L 1101 94 L 1100 95 L 1100 99 L 1097 108 L 1096 117 L 1094 121 L 1092 118 L 1092 115 L 1091 114 L 1091 110 L 1090 109 L 1090 106 L 1089 105 L 1089 102 L 1086 93 L 1086 89 L 1085 88 L 1085 84 L 1084 83 L 1083 76 L 1073 76 L 1072 83 L 1070 87 L 1070 90 L 1069 91 L 1069 94 L 1068 95 L 1068 98 L 1065 107 L 1065 111 L 1064 112 L 1063 119 L 1061 121 L 1060 120 L 1060 115 L 1059 114 L 1059 111 L 1057 106 L 1057 102 L 1054 93 L 1054 89 L 1051 80 L 1051 76 Z M 980 76 L 980 143 L 1014 143 L 1014 133 L 1015 132 L 1014 131 L 992 131 L 991 130 L 991 76 Z M 941 76 L 929 112 L 929 115 L 924 128 L 924 131 L 920 143 L 931 143 L 935 130 L 940 128 L 956 128 L 958 131 L 961 143 L 973 143 L 952 76 Z M 946 94 L 948 96 L 950 106 L 954 117 L 953 118 L 940 118 L 939 117 L 942 108 L 942 105 L 945 98 L 945 95 Z M 881 76 L 881 87 L 882 88 L 896 88 L 897 89 L 896 90 L 897 92 L 897 116 L 896 117 L 897 119 L 897 143 L 907 143 L 907 89 L 908 88 L 922 88 L 923 87 L 923 76 Z M 785 76 L 804 115 L 804 143 L 815 143 L 815 115 L 819 108 L 819 106 L 824 98 L 824 96 L 827 90 L 829 88 L 835 76 L 822 76 L 816 88 L 814 95 L 810 102 L 808 101 L 808 99 L 798 78 L 798 76 Z M 742 76 L 742 83 L 741 84 L 741 88 L 742 89 L 742 92 L 741 93 L 742 94 L 741 96 L 741 114 L 742 115 L 742 118 L 741 119 L 741 139 L 742 141 L 741 142 L 742 143 L 753 143 L 753 119 L 754 118 L 758 118 L 760 120 L 772 143 L 785 143 L 776 127 L 774 125 L 772 120 L 770 118 L 772 115 L 775 114 L 779 110 L 782 103 L 782 91 L 779 84 L 774 79 L 767 76 Z M 754 87 L 755 88 L 757 87 L 763 87 L 766 88 L 771 93 L 771 101 L 767 106 L 765 107 L 754 107 L 753 106 L 753 88 Z M 1255 75 L 1247 79 L 1243 84 L 1241 89 L 1241 100 L 1243 105 L 1246 109 L 1253 113 L 1265 117 L 1269 122 L 1269 126 L 1266 131 L 1262 133 L 1257 133 L 1254 132 L 1247 125 L 1247 124 L 1246 124 L 1239 131 L 1241 136 L 1245 140 L 1253 144 L 1266 144 L 1271 142 L 1275 139 L 1279 132 L 1279 129 L 1280 128 L 1280 119 L 1279 118 L 1279 115 L 1276 110 L 1271 106 L 1265 103 L 1262 103 L 1255 100 L 1252 96 L 1252 92 L 1256 87 L 1259 86 L 1265 87 L 1272 92 L 1279 85 L 1274 79 L 1266 75 Z M 851 75 L 844 79 L 841 82 L 838 89 L 838 102 L 840 106 L 845 111 L 861 117 L 865 121 L 865 124 L 866 125 L 865 128 L 861 132 L 859 133 L 853 133 L 849 131 L 843 124 L 836 131 L 836 133 L 838 136 L 845 142 L 850 144 L 856 144 L 858 145 L 859 144 L 866 143 L 873 137 L 876 130 L 876 118 L 873 111 L 869 107 L 858 102 L 853 101 L 849 97 L 849 91 L 853 87 L 858 86 L 863 88 L 869 93 L 876 85 L 869 78 L 863 75 Z M 1535 74 L 1534 75 L 1528 76 L 1523 79 L 1516 87 L 1511 100 L 1510 113 L 1511 114 L 1512 124 L 1517 134 L 1525 142 L 1527 142 L 1530 144 L 1539 145 L 1540 144 L 1544 144 L 1552 140 L 1559 132 L 1562 126 L 1562 123 L 1564 118 L 1564 100 L 1559 87 L 1552 79 L 1544 75 Z M 1537 87 L 1544 89 L 1549 94 L 1553 106 L 1553 113 L 1552 114 L 1552 118 L 1550 121 L 1550 123 L 1545 129 L 1541 131 L 1533 131 L 1531 130 L 1526 125 L 1522 113 L 1523 101 L 1525 96 L 1531 89 Z M 1312 74 L 1311 75 L 1306 75 L 1300 78 L 1291 88 L 1287 99 L 1286 116 L 1287 117 L 1289 127 L 1292 133 L 1300 141 L 1307 144 L 1315 145 L 1316 144 L 1320 144 L 1325 142 L 1334 134 L 1339 124 L 1340 114 L 1341 113 L 1341 106 L 1340 105 L 1339 96 L 1334 85 L 1325 77 L 1316 74 Z M 1313 87 L 1320 89 L 1325 94 L 1328 100 L 1328 104 L 1329 105 L 1329 114 L 1328 115 L 1327 121 L 1324 126 L 1321 129 L 1317 131 L 1310 131 L 1306 129 L 1302 125 L 1299 119 L 1299 112 L 1298 111 L 1299 101 L 1302 94 L 1307 89 Z M 707 74 L 696 78 L 688 86 L 683 96 L 683 99 L 682 100 L 682 109 L 681 111 L 682 112 L 683 123 L 689 135 L 694 140 L 699 143 L 705 144 L 706 145 L 712 145 L 724 141 L 727 139 L 733 132 L 726 125 L 726 124 L 725 124 L 720 130 L 713 133 L 708 133 L 700 129 L 696 124 L 693 116 L 693 103 L 695 97 L 702 89 L 707 87 L 715 87 L 719 89 L 725 95 L 732 88 L 732 86 L 724 78 L 720 76 L 714 75 L 713 74 Z M 51 40 L 36 55 L 29 64 L 25 72 L 23 74 L 17 86 L 16 91 L 12 100 L 12 103 L 10 108 L 10 112 L 9 113 L 9 120 L 8 121 L 8 144 L 9 145 L 9 153 L 10 154 L 10 158 L 11 159 L 12 166 L 22 190 L 24 192 L 30 203 L 39 214 L 54 227 L 62 231 L 64 233 L 79 240 L 88 243 L 95 244 L 96 245 L 102 245 L 103 246 L 232 246 L 232 241 L 231 240 L 231 237 L 229 231 L 221 217 L 214 211 L 203 205 L 197 204 L 196 203 L 114 203 L 113 202 L 107 202 L 106 201 L 99 200 L 85 193 L 78 188 L 69 179 L 63 171 L 57 159 L 54 150 L 54 147 L 53 146 L 53 141 L 52 140 L 52 124 L 53 123 L 54 115 L 57 106 L 59 103 L 59 101 L 69 85 L 79 75 L 97 64 L 106 61 L 116 60 L 117 59 L 186 59 L 187 58 L 190 58 L 196 56 L 198 54 L 201 53 L 205 49 L 209 39 L 209 31 L 208 30 L 208 27 L 202 18 L 197 15 L 110 15 L 109 16 L 103 16 L 102 17 L 87 20 L 81 23 L 79 23 L 67 29 Z M 474 11 L 462 11 L 461 12 L 451 13 L 445 16 L 437 22 L 430 33 L 427 47 L 426 48 L 426 51 L 425 52 L 425 55 L 424 56 L 424 60 L 421 69 L 421 73 L 420 74 L 420 77 L 419 78 L 419 81 L 416 90 L 415 99 L 414 100 L 414 103 L 413 104 L 413 107 L 410 116 L 410 120 L 408 125 L 406 138 L 405 139 L 405 142 L 404 143 L 404 146 L 403 147 L 403 150 L 402 151 L 402 154 L 399 163 L 399 167 L 397 172 L 397 176 L 394 185 L 392 184 L 389 170 L 382 149 L 381 142 L 376 129 L 376 126 L 372 116 L 372 113 L 369 106 L 369 103 L 365 91 L 362 85 L 353 77 L 351 77 L 348 75 L 343 75 L 342 74 L 332 75 L 324 78 L 316 86 L 315 89 L 313 91 L 302 124 L 302 127 L 298 137 L 298 140 L 296 143 L 296 146 L 293 152 L 291 162 L 287 172 L 286 179 L 283 185 L 282 184 L 280 171 L 279 170 L 279 167 L 278 166 L 278 163 L 277 162 L 277 159 L 274 150 L 274 146 L 273 145 L 273 142 L 272 141 L 267 118 L 264 110 L 264 106 L 263 105 L 263 102 L 260 93 L 260 89 L 258 85 L 258 81 L 257 80 L 257 77 L 256 76 L 256 73 L 255 72 L 255 69 L 254 68 L 254 65 L 252 60 L 252 56 L 248 44 L 247 37 L 242 28 L 231 18 L 223 15 L 219 15 L 218 14 L 201 14 L 201 15 L 208 17 L 215 24 L 219 33 L 219 44 L 216 51 L 212 56 L 212 60 L 216 71 L 217 79 L 220 88 L 220 92 L 221 93 L 224 108 L 226 112 L 226 115 L 227 116 L 227 119 L 228 120 L 228 123 L 229 124 L 229 127 L 230 128 L 230 131 L 231 132 L 231 135 L 234 144 L 234 148 L 235 149 L 240 172 L 242 176 L 242 180 L 243 181 L 247 200 L 251 212 L 251 216 L 252 217 L 253 224 L 256 232 L 261 239 L 266 243 L 273 246 L 286 247 L 299 242 L 303 239 L 306 235 L 311 225 L 311 222 L 319 199 L 319 196 L 332 157 L 332 154 L 334 150 L 334 147 L 338 135 L 340 137 L 340 140 L 342 144 L 342 147 L 344 151 L 344 154 L 346 158 L 348 168 L 352 178 L 352 181 L 362 211 L 362 214 L 366 224 L 366 227 L 370 235 L 378 243 L 382 245 L 388 246 L 389 247 L 398 247 L 410 243 L 420 234 L 425 222 L 425 218 L 426 217 L 428 206 L 430 202 L 430 198 L 432 193 L 433 184 L 434 183 L 434 180 L 435 179 L 435 176 L 438 167 L 438 163 L 439 162 L 440 155 L 442 151 L 444 138 L 446 134 L 446 130 L 448 125 L 450 112 L 452 108 L 452 104 L 453 103 L 453 100 L 454 99 L 454 96 L 455 95 L 455 92 L 456 91 L 456 88 L 459 79 L 459 75 L 460 74 L 460 71 L 461 70 L 461 67 L 464 58 L 465 49 L 467 44 L 467 39 L 468 38 L 468 35 L 469 34 L 470 26 L 471 25 Z M 549 8 L 548 9 L 542 9 L 541 10 L 537 10 L 536 11 L 529 12 L 516 18 L 503 27 L 494 37 L 486 51 L 485 57 L 484 58 L 484 62 L 483 63 L 482 82 L 483 83 L 484 92 L 487 101 L 494 112 L 501 119 L 505 121 L 508 124 L 527 134 L 532 135 L 543 140 L 560 145 L 563 147 L 575 151 L 589 159 L 596 168 L 598 173 L 598 186 L 597 187 L 597 190 L 595 194 L 589 201 L 579 207 L 576 207 L 567 210 L 550 210 L 549 209 L 544 209 L 543 208 L 539 208 L 538 207 L 535 207 L 529 205 L 522 201 L 518 200 L 502 188 L 498 187 L 492 189 L 485 195 L 481 203 L 481 214 L 486 223 L 493 229 L 501 234 L 514 240 L 526 244 L 529 244 L 530 245 L 543 246 L 544 247 L 574 247 L 575 246 L 586 245 L 598 241 L 608 236 L 619 228 L 630 215 L 635 205 L 637 199 L 637 196 L 638 195 L 638 191 L 639 190 L 639 165 L 638 164 L 636 153 L 632 144 L 628 138 L 617 127 L 611 123 L 593 114 L 557 102 L 533 91 L 524 81 L 524 78 L 523 77 L 523 68 L 526 61 L 532 54 L 541 49 L 547 48 L 548 47 L 553 47 L 554 46 L 569 46 L 570 47 L 575 47 L 576 48 L 583 49 L 598 55 L 605 61 L 609 63 L 616 63 L 620 61 L 625 56 L 628 51 L 629 43 L 630 42 L 629 41 L 629 37 L 626 31 L 618 23 L 603 15 L 591 11 L 583 10 L 582 9 L 575 9 L 574 8 Z"/>
</svg>
