<?xml version="1.0" encoding="UTF-8"?>
<svg xmlns="http://www.w3.org/2000/svg"
     width="647" height="255" viewBox="0 0 647 255"
     role="img" aria-labelledby="title desc"
     style="color:#fff">
  <title id="title">Crystal Web Solution CWS icon</title>
  <desc id="desc">Cropped CWS symbol without the company name or tagline.</desc>
  <path fill="currentColor" fill-rule="evenodd" clip-rule="evenodd" d="M 51 40 L 36 55 L 29 64 L 25 72 L 23 74 L 17 86 L 16 91 L 12 100 L 12 103 L 10 108 L 10 112 L 9 113 L 9 120 L 8 121 L 8 144 L 9 145 L 9 153 L 10 154 L 10 158 L 11 159 L 12 166 L 22 190 L 24 192 L 30 203 L 39 214 L 54 227 L 62 231 L 64 233 L 79 240 L 88 243 L 95 244 L 96 245 L 102 245 L 103 246 L 232 246 L 232 241 L 231 240 L 231 237 L 229 231 L 221 217 L 214 211 L 203 205 L 197 204 L 196 203 L 114 203 L 113 202 L 107 202 L 106 201 L 99 200 L 85 193 L 78 188 L 69 179 L 63 171 L 57 159 L 54 150 L 54 147 L 53 146 L 53 141 L 52 140 L 52 124 L 53 123 L 54 115 L 57 106 L 59 103 L 59 101 L 69 85 L 79 75 L 97 64 L 106 61 L 116 60 L 117 59 L 186 59 L 187 58 L 190 58 L 196 56 L 198 54 L 201 53 L 205 49 L 209 39 L 209 31 L 208 30 L 208 27 L 202 18 L 197 15 L 110 15 L 109 16 L 103 16 L 102 17 L 87 20 L 81 23 L 79 23 L 67 29 Z M 474 11 L 462 11 L 461 12 L 451 13 L 445 16 L 437 22 L 430 33 L 427 47 L 426 48 L 426 51 L 425 52 L 425 55 L 424 56 L 424 60 L 421 69 L 421 73 L 420 74 L 420 77 L 419 78 L 419 81 L 416 90 L 415 99 L 414 100 L 414 103 L 413 104 L 413 107 L 410 116 L 410 120 L 408 125 L 406 138 L 405 139 L 405 142 L 404 143 L 404 146 L 403 147 L 403 150 L 402 151 L 402 154 L 399 163 L 399 167 L 397 172 L 397 176 L 394 185 L 392 184 L 389 170 L 382 149 L 381 142 L 376 129 L 376 126 L 372 116 L 372 113 L 369 106 L 369 103 L 365 91 L 362 85 L 353 77 L 351 77 L 348 75 L 343 75 L 342 74 L 332 75 L 324 78 L 316 86 L 315 89 L 313 91 L 302 124 L 302 127 L 298 137 L 298 140 L 296 143 L 296 146 L 293 152 L 291 162 L 287 172 L 286 179 L 283 185 L 282 184 L 280 171 L 279 170 L 279 167 L 278 166 L 278 163 L 277 162 L 277 159 L 274 150 L 274 146 L 273 145 L 273 142 L 272 141 L 267 118 L 264 110 L 264 106 L 263 105 L 263 102 L 260 93 L 260 89 L 258 85 L 258 81 L 257 80 L 257 77 L 256 76 L 256 73 L 255 72 L 255 69 L 254 68 L 254 65 L 252 60 L 252 56 L 248 44 L 247 37 L 242 28 L 231 18 L 223 15 L 219 15 L 218 14 L 201 14 L 201 15 L 208 17 L 215 24 L 219 33 L 219 44 L 216 51 L 212 56 L 212 60 L 216 71 L 217 79 L 220 88 L 220 92 L 221 93 L 224 108 L 226 112 L 226 115 L 227 116 L 227 119 L 228 120 L 228 123 L 229 124 L 229 127 L 230 128 L 230 131 L 231 132 L 231 135 L 234 144 L 234 148 L 235 149 L 240 172 L 242 176 L 242 180 L 243 181 L 247 200 L 251 212 L 251 216 L 252 217 L 253 224 L 256 232 L 261 239 L 266 243 L 273 246 L 286 247 L 299 242 L 303 239 L 306 235 L 311 225 L 311 222 L 319 199 L 319 196 L 332 157 L 332 154 L 334 150 L 334 147 L 338 135 L 340 137 L 340 140 L 342 144 L 342 147 L 344 151 L 344 154 L 346 158 L 348 168 L 352 178 L 352 181 L 362 211 L 362 214 L 366 224 L 366 227 L 370 235 L 378 243 L 382 245 L 388 246 L 389 247 L 398 247 L 410 243 L 420 234 L 425 222 L 425 218 L 426 217 L 428 206 L 430 202 L 430 198 L 432 193 L 433 184 L 434 183 L 434 180 L 435 179 L 435 176 L 438 167 L 438 163 L 439 162 L 440 155 L 442 151 L 444 138 L 446 134 L 446 130 L 448 125 L 450 112 L 452 108 L 452 104 L 453 103 L 453 100 L 454 99 L 454 96 L 455 95 L 455 92 L 456 91 L 456 88 L 459 79 L 459 75 L 460 74 L 460 71 L 461 70 L 461 67 L 464 58 L 465 49 L 467 44 L 467 39 L 468 38 L 468 35 L 469 34 L 470 26 L 471 25 Z M 549 8 L 548 9 L 542 9 L 541 10 L 537 10 L 536 11 L 529 12 L 516 18 L 503 27 L 494 37 L 486 51 L 485 57 L 484 58 L 484 62 L 483 63 L 482 82 L 483 83 L 484 92 L 487 101 L 494 112 L 501 119 L 505 121 L 508 124 L 527 134 L 532 135 L 543 140 L 560 145 L 563 147 L 575 151 L 589 159 L 596 168 L 598 173 L 598 186 L 597 187 L 597 190 L 595 194 L 589 201 L 579 207 L 576 207 L 567 210 L 550 210 L 549 209 L 544 209 L 543 208 L 539 208 L 538 207 L 535 207 L 529 205 L 522 201 L 518 200 L 502 188 L 498 187 L 492 189 L 485 195 L 481 203 L 481 214 L 486 223 L 493 229 L 501 234 L 514 240 L 526 244 L 529 244 L 530 245 L 543 246 L 544 247 L 574 247 L 575 246 L 586 245 L 598 241 L 608 236 L 619 228 L 630 215 L 635 205 L 637 199 L 637 196 L 638 195 L 638 191 L 639 190 L 639 165 L 638 164 L 636 153 L 632 144 L 628 138 L 617 127 L 611 123 L 593 114 L 557 102 L 533 91 L 524 81 L 524 78 L 523 77 L 523 68 L 526 61 L 532 54 L 541 49 L 547 48 L 548 47 L 553 47 L 554 46 L 569 46 L 570 47 L 575 47 L 576 48 L 583 49 L 598 55 L 605 61 L 609 63 L 616 63 L 620 61 L 625 56 L 628 51 L 629 43 L 630 42 L 629 41 L 629 37 L 626 31 L 618 23 L 603 15 L 591 11 L 583 10 L 582 9 L 575 9 L 574 8 Z"/>
</svg>
